HIERARCHY
ROOT Hips
{
 OFFSET 0.000000 0.000000 0.000000
 CHANNELS 6 Xposition Yposition Zposition Yrotation Xrotation Zrotation
 JOINT Chest
 {
  OFFSET 0.000000 9.585900 0.002600
  CHANNELS 3 Yrotation Xrotation Zrotation
  JOINT Chest2
  {
   OFFSET 0.000000 9.601200 -0.005300
   CHANNELS 3 Yrotation Xrotation Zrotation
   JOINT Chest3
   {
    OFFSET 0.000000 9.561800 0.000000
    CHANNELS 3 Yrotation Xrotation Zrotation
    JOINT Chest4
    {
     OFFSET 0.000000 9.552100 0.000000
     CHANNELS 3 Yrotation Xrotation Zrotation
     JOINT Neck
     {
      OFFSET 0.000000 14.453000 0.000000
      CHANNELS 3 Yrotation Xrotation Zrotation
      JOINT Head
      {
       OFFSET 0.000000 8.936500 -0.011300
       CHANNELS 3 Yrotation Xrotation Zrotation
       End Site
       {
        OFFSET 0.000000 17.073600 -0.006000
       }
      }
     }
     JOINT RightCollar
     {
      OFFSET -2.921100 9.558500 0.000000
      CHANNELS 3 Yrotation Xrotation Zrotation
      JOINT RightShoulder
      {
       OFFSET -13.519700 0.000000 0.000000
       CHANNELS 3 Yrotation Xrotation Zrotation
       JOINT RightElbow
       {
        OFFSET 0.000000 -29.696600 0.000000
        CHANNELS 3 Yrotation Xrotation Zrotation
        JOINT RightWrist
        {
         OFFSET 0.000000 -24.004700 0.000000
         CHANNELS 3 Yrotation Xrotation Zrotation
         End Site
         {
          OFFSET 0.000000 -17.728500 0.000000
         }
        }
       }
      }
     }
     JOINT LeftCollar
     {
      OFFSET 2.921100 9.558500 0.000000
      CHANNELS 3 Yrotation Xrotation Zrotation
      JOINT LeftShoulder
      {
       OFFSET 13.519700 0.000000 0.000000
       CHANNELS 3 Yrotation Xrotation Zrotation
       JOINT LeftElbow
       {
        OFFSET 0.000000 -29.696600 0.000000
        CHANNELS 3 Yrotation Xrotation Zrotation
        JOINT LeftWrist
        {
         OFFSET 0.000000 -24.004700 0.000000
         CHANNELS 3 Yrotation Xrotation Zrotation
         End Site
         {
          OFFSET 0.000000 -17.728500 0.000000
         }
        }
       }
      }
     }
    }
   }
  }
 }
 JOINT RightHip
 {
  OFFSET -7.771700 -0.012900 -0.001300
  CHANNELS 3 Yrotation Xrotation Zrotation
  JOINT RightKnee
  {
   OFFSET 0.000000 -40.869800 0.001200
   CHANNELS 3 Yrotation Xrotation Zrotation
   JOINT RightAnkle
   {
    OFFSET 0.000000 -39.717900 0.002100
    CHANNELS 3 Yrotation Xrotation Zrotation
    JOINT RightToe
    {
     OFFSET 0.000000 -4.965400 11.033500
     CHANNELS 3 Yrotation Xrotation Zrotation
     End Site
     {
      OFFSET 0.000000 -1.423100 5.872300
     }
    }
   }
  }
 }
 JOINT LeftHip
 {
  OFFSET 7.771700 -0.012900 -0.001300
  CHANNELS 3 Yrotation Xrotation Zrotation
  JOINT LeftKnee
  {
   OFFSET 0.000000 -40.869800 0.001200
   CHANNELS 3 Yrotation Xrotation Zrotation
   JOINT LeftAnkle
   {
    OFFSET 0.000000 -39.717900 0.002100
    CHANNELS 3 Yrotation Xrotation Zrotation
    JOINT LeftToe
    {
     OFFSET 0.000000 -4.965400 11.033500
     CHANNELS 3 Yrotation Xrotation Zrotation
     End Site
     {
      OFFSET 0.000000 -1.423100 5.872300
     }
    }
   }
  }
 }
}
MOTION
Frames: 5
Frame Time: 0.008333
-121.495954 58.249495 102.075071 178.213515 -30.771602 -0.686635 2.086107 20.198115 2.922115 0.206846 2.569901 0.264540 0.278125 4.211207 0.406375 1.698691 17.377154 2.040695 -4.790391 15.153218 -3.906712 -7.610709 -7.716225 -5.509342 3.444007 -3.604451 -0.225627 12.562059 -16.523642 -22.927486 152.830120 -72.189516 -109.326163 20.535357 -13.676447 -51.037449 -7.763411 -4.832847 -2.583198 -3.472976 -11.760453 8.344258 37.681981 -37.525474 -88.126689 4.511813 -10.021608 -0.997000 6.162554 -43.423192 -4.967916 -9.801272 67.436311 -11.515297 5.822616 21.393592 7.004984 -0.264645 -15.023405 1.056234 -6.568468 -42.016462 0.597030 25.840363 64.566660 23.553040 -16.446882 6.096442 -2.800217 -0.202624 -0.399785 -0.088029
-121.490069 58.249776 102.073720 178.191871 -30.784391 -0.644887 2.118783 20.207064 2.914528 0.237880 2.566954 0.281409 0.338812 4.213646 0.432302 1.712385 17.379991 2.036631 -4.859438 15.158316 -4.094114 -7.617460 -7.709050 -5.843002 3.388393 -3.603790 -0.197273 12.543849 -16.504128 -22.906552 152.784189 -72.180187 -109.286438 20.545133 -13.679397 -51.052272 -7.805536 -4.829361 -2.557426 -3.418420 -11.793482 8.377058 37.617549 -37.518778 -88.168206 4.524952 -10.027536 -0.988232 6.156895 -43.415743 -4.971394 -9.761358 67.444137 -11.510187 5.828018 21.388413 7.001683 -0.267212 -15.021749 1.056381 -6.530656 -42.005140 0.562511 25.832613 64.571168 23.543648 -16.441086 6.095282 -2.801638 -0.200661 -0.406174 -0.093363
-121.483909 58.250422 102.071987 178.168273 -30.803449 -0.598045 2.151384 20.221362 2.901822 0.269572 2.563506 0.300270 0.364991 4.214567 0.440389 1.763653 17.381767 2.045999 -4.925118 15.165195 -4.287269 -7.617649 -7.700893 -6.189619 3.332839 -3.598695 -0.167666 12.532712 -16.489634 -22.894370 152.744702 -72.167838 -109.249159 20.562496 -13.644453 -51.066785 -7.896111 -4.823915 -2.545013 -3.351680 -11.810292 8.399087 37.588837 -37.536809 -88.186370 4.544007 -10.024010 -0.981084 6.161776 -43.402536 -4.986019 -9.714194 67.454983 -11.490188 5.828835 21.385882 6.993542 -0.271615 -15.022680 1.057869 -6.507195 -41.979904 0.537073 25.836648 64.566972 23.524888 -16.422647 6.083499 -2.804984 -0.212687 -0.397872 -0.090304
-121.477074 58.249903 102.072561 178.159387 -30.810476 -0.558190 2.199323 20.218076 2.917892 0.258512 2.566109 0.291165 0.356052 4.217802 0.432747 1.838754 17.378575 2.067665 -4.959477 15.171357 -4.487166 -7.607758 -7.694384 -6.550487 3.310134 -3.590912 -0.142078 12.528647 -16.480486 -22.891068 152.654584 -72.156436 -109.176424 20.554487 -13.694563 -51.068171 -7.881135 -4.805034 -2.520148 -3.370015 -11.826044 8.385644 37.621610 -37.576914 -88.164407 4.588401 -9.981238 -1.027985 6.178693 -43.399145 -5.022594 -9.704727 67.462868 -11.476775 5.820723 21.384309 6.958874 -0.264359 -15.021110 1.068551 -6.481698 -41.969175 0.500241 25.832916 64.553945 23.516869 -16.425359 6.085125 -2.816688 -0.215583 -0.396613 -0.089101
-121.471908 58.250165 102.072127 178.140615 -30.828571 -0.498569 2.268700 20.218552 2.941648 0.238459 2.572322 0.274106 0.380603 4.217883 0.441405 1.856287 17.381638 2.065831 -4.988330 15.175996 -4.692523 -7.585717 -7.690362 -6.923563 3.298715 -3.581948 -0.119258 12.530491 -16.475771 -22.897580 152.624317 -72.141061 -109.147009 20.548390 -13.725139 -51.071573 -7.855375 -4.780940 -2.500557 -3.386086 -11.838064 8.369592 37.633995 -37.588662 -88.165649 4.600506 -9.962200 -1.041876 6.217126 -43.385152 -5.073892 -9.696656 67.471731 -11.479032 5.831736 21.387708 6.940861 -0.277202 -15.026527 1.083789 -6.424259 -41.952473 0.435965 25.827916 64.549596 23.508780 -16.420818 6.095110 -2.814257 -0.223087 -0.406613 -0.093521
